#N canvas 1 55 935 609 10;
#X obj 121 215 / 1;
#X obj 186 121 sel 0;
#X obj 61 147 t 0;
#X obj 121 183 float;
#X obj 185 149 t b f;
#X floatatom 89 481 5 0 0 0 - - -, f 5;
#X obj 105 351 float;
#X obj 121 315 t b f;
#X obj 123 394 -;
#X obj 87 501 outlet;
#X text 320 120 centerbin - (centerbin / factor) = shift amount;
#X obj 123 450 int;
#X obj 123 422 + 0.5;
#X obj 61 40 inlet;
#X obj 137 45 inlet;
#X text 185 46 center bin;
#X text 52 21 shift factor;
#X connect 0 0 7 0;
#X connect 1 0 2 0;
#X connect 1 1 4 0;
#X connect 2 0 5 0;
#X connect 3 0 0 0;
#X connect 4 0 3 0;
#X connect 4 1 0 1;
#X connect 5 0 9 0;
#X connect 6 0 8 0;
#X connect 7 0 6 0;
#X connect 7 1 8 1;
#X connect 8 0 12 0;
#X connect 11 0 5 0;
#X connect 12 0 11 0;
#X connect 13 0 1 0;
#X connect 14 0 3 0;
#X connect 14 0 6 1;
