#N canvas 1 52 1265 635 10;
#X msg 269 98 65536;
#X msg 262 75 131072;
#X obj 245 32 loadbang;
#X msg 273 126 32768;
#X obj 27 87 set-directory;
#X obj 27 50 bng 30 250 50 0 empty empty empty 17 7 0 10 -4032 -1 -1
;
#X obj 28 112 s data-dir;
#X msg 29 150 \; pd dsp 1;
#X msg 29 196 \; pd dsp 0;
#X obj 234 162 s block-size;
#X msg 341 69 50;
#X obj 341 101 s window-ramp;
#X msg 153 83 ../data, f 10;
#X obj 360 133 window-gen;
#X obj 207 220 bng 15 250 50 0 empty empty empty 17 7 0 10 -262144
-1 -1;
#X obj 150 221 bng 15 250 50 0 empty empty empty 17 7 0 10 -262144
-1 -1;
#X obj 150 286 s cadence;
#X msg 150 248 60;
#X msg 207 248 45;
#X obj 132 190 s filestem;
#X msg 150 122 mdi;
#X msg 165 147 hmi;
#X msg 261 193 262144;
#X obj 344 220 s fileblank;
#X msg 344 165 average.modes;
#X floatatom 655 481 5 0 0 0 - - -, f 5;
#X floatatom 466 353 5 0 0 0 - - -, f 5;
#X obj 565 275 bng 15 250 50 0 empty empty empty 17 7 0 10 -262144
-1 -1;
#X floatatom 576 323 5 0 0 0 - - -, f 5;
#X floatatom 608 342 5 0 0 0 - - -, f 5;
#X floatatom 642 361 5 0 0 0 - - -, f 5;
#X obj 757 334 tgl 15 0 empty empty empty 17 7 0 10 -262144 -1 -1 0
1;
#X msg 721 442 set \$1;
#X msg 721 478 1010-output;
#X text 453 331 day number;
#X text 620 319 l;
#X text 648 339 n;
#X text 684 358 m;
#X obj 689 641 dac~ 1 2;
#X obj 690 586 audio_safety~;
#X obj 512 446 *~;
#X obj 368 319 * 0.01;
#X obj 368 293 nbx 10 20 0 100 0 0 empty empty empty 0 -8 0 10 -204786
-1 -1 0 256;
#X text 368 275 volume (0-100);
#X text 555 257 start;
#X text 781 332 on/off;
#X obj 24 373 nbx 10 20 -1e+37 1e+37 0 0 empty empty empty 0 -8 0 10
-204786 -1 -1 8000 256;
#X msg 24 345 44100;
#X text 130 377 desired SR;
#X msg 79 345 22050;
#X msg 136 345 11025;
#X msg 74 319 8000;
#X obj 24 416 s play-SR;
#X obj 25 483 nbx 10 20 0 22100 0 0 empty empty empty 0 -8 0 10 -204786
-1 -1 0 256;
#X text 132 493 2 = 1 octave lower;
#X text 132 479 downshift factor;
#X obj 121 606 * 60;
#X obj 121 660 /;
#X floatatom 156 682 10 0 0 0 - - -, f 10;
#X obj 121 631 f;
#X obj 73 661 t b f;
#X obj 41 599 sel 0;
#X msg 41 626 1;
#X floatatom 1028 406 5 0 0 0 - - -, f 5;
#X floatatom 880 311 5 0 0 0 - - -, f 5;
#X obj 979 233 bng 15 250 50 0 empty empty empty 17 7 0 10 -262144
-1 -1;
#X floatatom 990 281 5 0 0 0 - - -, f 5;
#X floatatom 1022 300 5 0 0 0 - - -, f 5;
#X floatatom 1056 319 5 0 0 0 - - -, f 5;
#X obj 1171 292 tgl 15 0 empty empty empty 17 7 0 10 -262144 -1 -1
0 1;
#X msg 1135 400 set \$1;
#X msg 1135 436 1030-output;
#X text 867 289 day number;
#X text 1034 277 l;
#X text 1062 297 n;
#X text 1098 316 m;
#X obj 926 404 *~;
#X obj 804 251 * 0.01;
#X obj 804 225 nbx 10 20 0 100 0 0 empty empty empty 0 -8 0 10 -204786
-1 -1 0 256;
#X text 804 207 volume (0-100);
#X text 969 215 start;
#X text 1195 290 on/off;
#N canvas 0 50 450 250 (subpatch) 0;
#X array sumtest 1 float 2;
#X coords 0 1 1 -1 200 140 1;
#X restore 954 612 graph;
#X msg 819 683 \; sumtest normalize;
#X msg 819 643 \; sumtest const 0;
#X msg 25 452 2;
#X msg 107 452 8;
#X msg 66 452 4;
#X obj 814 556 bng 15 250 50 0 empty empty empty 17 7 0 10 -262144
-1 -1;
#X obj 929 38 r play-SR;
#X obj 799 35 tgl 15 0 empty empty empty 17 7 0 10 -262144 -1 -1 0
1;
#X obj 667 78 * 0.01;
#X obj 667 52 nbx 10 20 0 100 0 0 empty empty empty 0 -8 0 10 -204786
-1 -1 0 256;
#X text 661 33 volume (0-100);
#X obj 667 128 *~;
#X obj 665 197 dac~ 1 2;
#X obj 666 164 audio_safety~;
#X obj 799 75 arbitrarySR sumtest;
#X floatatom 458 585 5 0 0 0 - - -, f 5;
#X obj 408 552 *;
#X floatatom 408 585 5 0 0 0 - - -, f 5;
#X obj 408 505 t b f;
#X obj 156 712 / 1e+06;
#X text 233 680 transposition factor;
#X floatatom 610 481 5 0 0 0 - - -, f 5;
#X floatatom 1124 545 5 0 0 0 - - -, f 5;
#X obj 1074 512 *;
#X floatatom 1074 545 5 0 0 0 - - -, f 5;
#X obj 1066 466 t b f;
#X floatatom 982 406 5 0 0 0 - - -, f 5;
#X obj 869 571 modeaddition sumtest;
#X msg 360 193 %dd.modes;
#X obj 266 234 tgl 15 0 empty empty empty 17 7 0 10 -262144 -1 -1 0
1;
#X obj 266 254 s mswitch;
#X obj 511 394 modefilter, f 33;
#X obj 925 352 modefilter, f 33;
#X obj 25 514 s shiftfactor;
#X obj 136 545 r cadence;
#X obj 136 571 t b f;
#X connect 0 0 9 0;
#X connect 1 0 9 0;
#X connect 2 0 12 0;
#X connect 2 0 10 0;
#X connect 2 0 20 0;
#X connect 2 0 24 0;
#X connect 2 0 51 0;
#X connect 3 0 9 0;
#X connect 4 0 6 0;
#X connect 4 1 12 0;
#X connect 5 0 4 0;
#X connect 10 0 11 0;
#X connect 12 0 4 1;
#X connect 14 0 18 0;
#X connect 14 0 22 0;
#X connect 15 0 17 0;
#X connect 15 0 1 0;
#X connect 17 0 16 0;
#X connect 18 0 16 0;
#X connect 20 0 19 0;
#X connect 20 0 15 0;
#X connect 21 0 19 0;
#X connect 21 0 14 0;
#X connect 22 0 9 0;
#X connect 24 0 23 0;
#X connect 25 0 110 3;
#X connect 26 0 114 1;
#X connect 27 0 31 0;
#X connect 27 0 114 0;
#X connect 28 0 114 2;
#X connect 29 0 114 3;
#X connect 30 0 114 4;
#X connect 31 0 114 6;
#X connect 32 0 33 0;
#X connect 39 0 38 0;
#X connect 39 0 38 1;
#X connect 40 0 39 0;
#X connect 41 0 40 1;
#X connect 42 0 41 0;
#X connect 46 0 52 0;
#X connect 46 0 56 0;
#X connect 47 0 46 0;
#X connect 49 0 46 0;
#X connect 50 0 46 0;
#X connect 51 0 46 0;
#X connect 53 0 61 0;
#X connect 53 0 116 0;
#X connect 56 0 59 0;
#X connect 57 0 58 0;
#X connect 58 0 102 0;
#X connect 59 0 57 0;
#X connect 60 0 59 0;
#X connect 60 1 57 1;
#X connect 61 0 62 0;
#X connect 61 1 60 0;
#X connect 62 0 60 0;
#X connect 63 0 110 4;
#X connect 64 0 115 1;
#X connect 65 0 69 0;
#X connect 65 0 115 0;
#X connect 66 0 115 2;
#X connect 67 0 115 3;
#X connect 68 0 115 4;
#X connect 69 0 115 6;
#X connect 70 0 71 0;
#X connect 76 0 39 0;
#X connect 77 0 76 1;
#X connect 78 0 77 0;
#X connect 85 0 53 0;
#X connect 86 0 53 0;
#X connect 87 0 53 0;
#X connect 88 0 110 0;
#X connect 89 0 97 1;
#X connect 90 0 97 0;
#X connect 91 0 94 1;
#X connect 92 0 91 0;
#X connect 94 0 96 0;
#X connect 96 0 95 0;
#X connect 96 0 95 1;
#X connect 97 0 94 0;
#X connect 99 0 100 0;
#X connect 101 0 99 0;
#X connect 101 1 99 1;
#X connect 102 0 101 0;
#X connect 102 0 108 0;
#X connect 104 0 99 0;
#X connect 106 0 107 0;
#X connect 108 0 106 0;
#X connect 108 1 106 1;
#X connect 109 0 106 0;
#X connect 111 0 23 0;
#X connect 112 0 113 0;
#X connect 114 0 40 0;
#X connect 114 1 104 0;
#X connect 114 2 25 0;
#X connect 114 3 98 0;
#X connect 114 4 32 0;
#X connect 114 4 110 1;
#X connect 115 0 76 0;
#X connect 115 1 109 0;
#X connect 115 2 63 0;
#X connect 115 3 105 0;
#X connect 115 4 70 0;
#X connect 115 4 110 2;
#X connect 117 0 118 0;
#X connect 118 0 56 0;
#X connect 118 1 56 1;
