#N canvas 1 52 1189 590 10;
#X msg 269 98 65536;
#X msg 262 75 131072;
#X obj 245 32 loadbang;
#X msg 273 126 32768;
#X obj 27 87 set-directory;
#X obj 27 50 bng 30 250 50 0 empty empty empty 17 7 0 10 -4032 -1 -1
;
#X obj 28 112 s data-dir;
#X msg 29 150 \; pd dsp 1;
#X msg 29 196 \; pd dsp 0;
#X obj 234 162 s block-size;
#X msg 341 69 50;
#X obj 341 101 s window-ramp;
#X msg 153 83 ../data, f 10;
#X obj 360 133 window-gen;
#X obj 207 220 bng 15 250 50 0 empty empty empty 17 7 0 10 -262144
-1 -1;
#X obj 150 221 bng 15 250 50 0 empty empty empty 17 7 0 10 -262144
-1 -1;
#X obj 150 286 s cadence;
#X msg 150 248 60;
#X msg 207 248 45;
#X obj 132 190 s filestem;
#X msg 150 122 mdi;
#X msg 165 147 hmi;
#X msg 261 193 262144;
#X obj 344 220 s fileblank;
#X msg 344 165 average.modes;
#X floatatom 619 446 5 0 0 0 - - -, f 5;
#X floatatom 466 353 5 0 0 0 - - -, f 5;
#X obj 565 275 bng 15 250 50 0 empty empty empty 17 7 0 10 -262144
-1 -1;
#X floatatom 576 323 5 0 0 0 - - -, f 5;
#X floatatom 608 342 5 0 0 0 - - -, f 5;
#X floatatom 642 361 5 0 0 0 - - -, f 5;
#X obj 757 334 tgl 15 0 empty empty empty 17 7 0 10 -262144 -1 -1 0
1;
#X msg 721 442 set \$1;
#X msg 721 478 1166-output;
#X text 453 331 day number;
#X text 620 319 l;
#X text 648 339 n;
#X text 684 358 m;
#X obj 689 641 dac~ 1 2;
#X obj 690 586 audio_safety~;
#X obj 512 446 *~;
#X obj 368 319 * 0.01;
#X obj 368 293 nbx 10 20 0 100 0 0 empty empty empty 0 -8 0 10 -204786
-1 -1 0 256;
#X text 368 275 volume (0-100);
#X text 555 257 start;
#X text 781 332 on/off;
#X floatatom 84 624 5 0 0 0 - - -, f 5;
#X obj 166 649 unpack;
#X floatatom 166 699 0 0 0 0 - - -;
#X floatatom 180 676 0 0 0 0 - - -;
#X floatatom 224 615 5 0 0 0 - - -, f 5;
#X obj 141 572 fiddle~ 1024 1 10 1;
#X floatatom 379 672 0 0 0 0 - - -;
#X floatatom 302 670 0 0 0 0 - - -;
#X obj 83 655 mtof;
#X floatatom 81 690 5 0 0 0 - - -, f 5;
#X obj 288 643 unpack f f f;
#X obj 24 373 nbx 10 20 -1e+37 1e+37 0 0 empty empty empty 0 -8 0 10
-204786 -1 -1 8000 256;
#X msg 24 345 44100;
#X text 130 377 desired SR;
#X msg 79 345 22050;
#X msg 136 345 11025;
#X msg 74 319 8000;
#X obj 24 416 s play-SR;
#X obj 25 483 nbx 10 20 0 22100 0 0 empty empty empty 0 -8 0 10 -204786
-1 -1 0 256;
#X text 132 484 2 = 1 octave lower;
#X text 26 462 downshift factor;
#X text 4 622 MIDI pitch;
#X text 6 687 frequency;
#X obj 511 394 modefilter0, f 33;
#X obj 433 524 * 60;
#X obj 400 590 /;
#X floatatom 435 612 10 0 0 0 - - -, f 10;
#X obj 433 553 f;
#X obj 352 591 t b f;
#X obj 320 529 sel 0;
#X msg 320 556 1;
#X text 433 627 total transposition factor;
#X floatatom 1033 404 5 0 0 0 - - -, f 5;
#X floatatom 880 311 5 0 0 0 - - -, f 5;
#X obj 979 233 bng 15 250 50 0 empty empty empty 17 7 0 10 -262144
-1 -1;
#X floatatom 990 281 5 0 0 0 - - -, f 5;
#X floatatom 1022 300 5 0 0 0 - - -, f 5;
#X floatatom 1056 319 5 0 0 0 - - -, f 5;
#X obj 1171 292 tgl 15 0 empty empty empty 17 7 0 10 -262144 -1 -1
0 1;
#X msg 1135 400 set \$1;
#X msg 1135 436 1186-output;
#X text 867 289 day number;
#X text 1034 277 l;
#X text 1062 297 n;
#X text 1098 316 m;
#X obj 926 404 *~;
#X obj 804 251 * 0.01;
#X obj 804 225 nbx 10 20 0 100 0 0 empty empty empty 0 -8 0 10 -204786
-1 -1 0 256;
#X text 804 207 volume (0-100);
#X text 969 215 start;
#X text 1195 290 on/off;
#X obj 925 352 modefilter0, f 33;
#X msg 360 193 %dd.modes;
#X obj 433 472 r cadence;
#X obj 433 498 t b f;
#X obj 25 514 s shiftfactor;
#X obj 266 234 tgl 15 0 empty empty empty 17 7 0 10 -262144 -1 -1 0
1;
#X obj 266 254 s mswitch;
#X connect 0 0 9 0;
#X connect 1 0 9 0;
#X connect 2 0 12 0;
#X connect 2 0 10 0;
#X connect 2 0 20 0;
#X connect 2 0 24 0;
#X connect 2 0 62 0;
#X connect 3 0 9 0;
#X connect 4 0 6 0;
#X connect 4 1 12 0;
#X connect 5 0 4 0;
#X connect 10 0 11 0;
#X connect 12 0 4 1;
#X connect 14 0 18 0;
#X connect 14 0 22 0;
#X connect 15 0 17 0;
#X connect 15 0 1 0;
#X connect 17 0 16 0;
#X connect 18 0 16 0;
#X connect 20 0 19 0;
#X connect 20 0 15 0;
#X connect 21 0 19 0;
#X connect 21 0 14 0;
#X connect 22 0 9 0;
#X connect 24 0 23 0;
#X connect 26 0 69 1;
#X connect 27 0 31 0;
#X connect 27 0 69 0;
#X connect 28 0 69 2;
#X connect 29 0 69 3;
#X connect 30 0 69 4;
#X connect 31 0 69 6;
#X connect 32 0 33 0;
#X connect 39 0 38 0;
#X connect 39 0 38 1;
#X connect 40 0 39 0;
#X connect 41 0 40 1;
#X connect 42 0 41 0;
#X connect 46 0 54 0;
#X connect 47 0 48 0;
#X connect 47 1 49 0;
#X connect 51 0 46 0;
#X connect 51 2 47 0;
#X connect 51 3 50 0;
#X connect 51 4 56 0;
#X connect 54 0 55 0;
#X connect 56 1 53 0;
#X connect 56 2 52 0;
#X connect 57 0 63 0;
#X connect 57 0 70 0;
#X connect 58 0 57 0;
#X connect 60 0 57 0;
#X connect 61 0 57 0;
#X connect 62 0 57 0;
#X connect 64 0 75 0;
#X connect 64 0 101 0;
#X connect 69 0 40 0;
#X connect 69 0 51 0;
#X connect 69 1 25 0;
#X connect 69 2 32 0;
#X connect 70 0 73 0;
#X connect 71 0 72 0;
#X connect 73 0 71 0;
#X connect 74 0 73 0;
#X connect 74 1 71 1;
#X connect 75 0 76 0;
#X connect 75 1 74 0;
#X connect 76 0 74 0;
#X connect 79 0 97 1;
#X connect 80 0 84 0;
#X connect 80 0 97 0;
#X connect 81 0 97 2;
#X connect 82 0 97 3;
#X connect 83 0 97 4;
#X connect 84 0 97 6;
#X connect 85 0 86 0;
#X connect 91 0 39 0;
#X connect 92 0 91 1;
#X connect 93 0 92 0;
#X connect 97 0 91 0;
#X connect 97 1 78 0;
#X connect 97 2 85 0;
#X connect 98 0 23 0;
#X connect 99 0 100 0;
#X connect 100 0 70 0;
#X connect 100 1 70 1;
#X connect 102 0 103 0;
