#N canvas 1 52 1265 635 10;
#X msg 269 98 65536;
#X msg 262 75 131072;
#X obj 245 32 loadbang;
#X msg 273 126 32768;
#X obj 27 87 set-directory;
#X obj 27 50 bng 30 250 50 0 empty empty empty 17 7 0 10 -4032 -1 -1
;
#X obj 28 112 s data-dir;
#X msg 29 150 \; pd dsp 1;
#X msg 29 196 \; pd dsp 0;
#X obj 234 162 s block-size;
#X msg 341 69 50;
#X obj 341 101 s window-ramp;
#X msg 153 83 ../data, f 10;
#X obj 360 133 window-gen;
#X obj 207 220 bng 15 250 50 0 empty empty empty 17 7 0 10 -262144
-1 -1;
#X obj 150 221 bng 15 250 50 0 empty empty empty 17 7 0 10 -262144
-1 -1;
#X obj 150 286 s cadence;
#X msg 150 248 60;
#X msg 207 248 45;
#X obj 132 190 s filestem;
#X msg 150 122 mdi;
#X msg 165 147 hmi;
#X msg 261 193 262144;
#X obj 344 220 s fileblank;
#X msg 344 165 average.modes;
#X obj 792 519 dac~ 1 2;
#X obj 792 489 audio_safety~;
#X obj 24 373 nbx 10 20 -1e+37 1e+37 0 0 empty empty empty 0 -8 0 10
-204786 -1 -1 8000 256;
#X msg 24 345 44100;
#X text 130 377 desired SR;
#X msg 79 345 22050;
#X msg 136 345 11025;
#X msg 74 319 8000;
#X obj 24 416 s play-SR;
#X obj 25 483 nbx 10 20 0 22100 0 0 empty empty empty 0 -8 0 10 -204786
-1 -1 0 256;
#X text 132 493 2 = 1 octave lower;
#X text 132 479 downshift factor;
#X obj 25 514 s shift-factor;
#X obj 113 607 * 60;
#X obj 113 658 /;
#X floatatom 113 684 10 0 0 0 - - -, f 10;
#X obj 113 631 f;
#X obj 65 659 t b f;
#X obj 33 552 sel 0;
#X msg 33 579 1;
#X floatatom 1022 398 5 0 0 0 - - -, f 5;
#X floatatom 875 290 5 0 0 0 - - -, f 5;
#X obj 935 273 bng 15 250 50 0 empty empty empty 17 7 0 10 -262144
-1 -1;
#X floatatom 990 281 5 0 0 0 - - -, f 5;
#X floatatom 1022 300 5 0 0 0 - - -, f 5;
#X floatatom 1056 319 5 0 0 0 - - -, f 5;
#X obj 1171 292 tgl 15 0 empty empty empty 17 7 0 10 -262144 -1 -1
0 1;
#X text 797 288 day number;
#X text 1034 277 l;
#X text 1062 297 n;
#X text 1098 316 m;
#X obj 793 461 *~;
#X obj 862 460 * 0.01;
#X obj 862 434 nbx 10 20 0 100 0 0 empty empty empty 0 -8 0 10 -204786
-1 -1 0 256;
#X text 862 416 volume (0-100);
#X text 925 255 start;
#X text 1195 290 on/off;
#X msg 25 452 2;
#X msg 107 452 8;
#X msg 66 452 4;
#X text 86 702 transposition factor;
#X floatatom 1148 390 5 0 0 0 - - -, f 5;
#X floatatom 1147 408 5 0 0 0 - - -, f 5;
#X obj 925 352 modefilter, f 33;
#X floatatom 1115 260 5 0 0 0 - - -, f 5;
#X obj 1115 210 loadbang;
#X msg 1115 235 1.2;
#X text 1160 259 width multiplier;
#X obj 991 61 r play-SR;
#X obj 826 59 tgl 15 0 empty empty empty 17 7 0 10 -262144 -1 -1 0
1;
#X obj 705 127 * 0.01;
#X obj 705 101 nbx 10 20 0 100 0 0 empty empty empty 0 -8 0 10 -204786
-1 -1 0 256;
#X text 705 83 volume (0-100);
#X obj 705 177 *~;
#X obj 703 246 dac~ 1 2;
#X obj 704 213 audio_safety~;
#X obj 826 99 arbitrarySRmulti sumtest;
#X obj 1027 144 array size sumtest;
#X floatatom 929 22 5 0 0 0 - - -, f 5;
#X obj 1086 33 r sperday;
#X obj 1086 61 * 72;
#X obj 1027 92 t b f;
#X text 780 20 number of timeseries;
#X obj 1027 119 *;
#X obj 1167 121 min;
#X obj 1167 64 t b f;
#X obj 1167 33 r block-size;
#N canvas 1 108 1265 421 catarray 0;
#N canvas 0 50 450 250 (subpatch) 0;
#X array sumtest 1 float 2;
#X coords 0 1 1 -1 1000 300 1 0 0;
#X restore 149 74 graph;
#X msg 11 116 \; sumtest normalize;
#X msg 11 76 \; sumtest const 0;
#X obj 74 317 inlet;
#X obj 150 377 hsl 1000 15 0 127 0 0 empty empty empty -2 -8 0 10 -262144
-1 -1 0 1;
#X obj 27 543 soundfiler;
#X obj 27 395 bng 30 250 50 0 empty empty empty 17 7 0 10 -4032 -1
-1;
#X text 63 401 save array to WAVE file;
#X obj 101 430 r play-SR;
#X obj 27 459 f;
#X msg 27 504 write -wave -bytes 4 -rate \$1 ./wav_out/modecat sumtest
;
#X connect 3 0 4 0;
#X connect 6 0 9 0;
#X connect 8 0 9 1;
#X connect 9 0 10 0;
#X connect 10 0 5 0;
#X restore 868 151 pd catarray;
#X msg 261 248 1440;
#X msg 313 247 1920;
#X obj 261 284 s sperday;
#X obj 843 205 r daynumber;
#X obj 843 233 t b f;
#X obj 605 181 qlist;
#X obj 573 83 t b b;
#X obj 573 50 bng 15 250 50 0 empty empty empty 17 7 0 10 -262144 -1
-1;
#X msg 519 146 clear;
#X text 594 50 start sequencer;
#X text 476 146 stop;
#X obj 472 29 bng 15 250 50 0 empty empty empty 17 7 0 10 -262144 -1
-1;
#X obj 472 54 openpanel;
#X msg 472 85 set read \$1;
#X text 492 26 set sequence file;
#X msg 605 149;
#X msg 360 193 %dd.modes;
#X obj 1180 151 array size sum1;
#X obj 1159 173 array size sum2;
#X obj 474 212 tgl 15 0 empty empty empty 17 7 0 10 -262144 -1 -1 0
1;
#X obj 474 232 s window-on;
#X text 432 253 turn windowing on/off;
#X msg 474 180 0;
#X floatatom 709 483 5 0 0 0 - - -, f 5;
#X floatatom 397 381 5 0 0 0 - - -, f 5;
#X obj 457 364 bng 15 250 50 0 empty empty empty 17 7 0 10 -262144
-1 -1;
#X floatatom 512 372 5 0 0 0 - - -, f 5;
#X floatatom 544 391 5 0 0 0 - - -, f 5;
#X floatatom 579 408 5 0 0 0 - - -, f 5;
#X obj 693 383 tgl 15 0 empty empty empty 17 7 0 10 -262144 -1 -1 0
1;
#X text 319 379 day number;
#X text 556 368 l;
#X text 584 388 n;
#X text 620 407 m;
#X text 447 346 start;
#X text 717 381 on/off;
#X floatatom 536 473 5 0 0 0 - - -, f 5;
#X floatatom 536 492 5 0 0 0 - - -, f 5;
#X obj 447 443 modefilter, f 33;
#X floatatom 637 351 5 0 0 0 - - -, f 5;
#X obj 637 301 loadbang;
#X msg 637 326 1.2;
#X text 682 350 width multiplier;
#X obj 365 296 r daynumber;
#X obj 365 324 t b f;
#X obj 307 657 bng 15 250 50 0 empty empty empty 17 7 0 10 -262144
-1 -1;
#X obj 307 704 modecat sumtest;
#X floatatom 397 591 5 0 0 0 - - -, f 5;
#X obj 358 673 *;
#X obj 376 641 r sperday;
#X text 264 574 day number of first timeseries;
#X obj 727 629 modeaddition sum1;
#X obj 674 614 bng 15 250 50 0 empty empty empty 17 7 0 10 -262144
-1 -1;
#X obj 494 606 loadbang;
#X msg 1100 485 \; sum1 normalize;
#N canvas 0 50 450 250 (subpatch) 0;
#X array sum1 103680 float 2;
#X coords 0 1 103680 -1 200 140 1;
#X restore 1033 530 graph;
#X msg 1114 442 \; sum1 const 0;
#X obj 681 712 applywindow sum2;
#X msg 494 634 sum2;
#X msg 790 684 sum1;
#N canvas 1 52 646 365 sumarray 0;
#N canvas 0 50 450 250 (subpatch) 0;
#X array sum2 103680 float 2;
#X coords 0 1 103680 -1 200 140 1;
#X restore 130 68 graph;
#X msg 17 71 \; sum2 const 0;
#X obj 36 320 soundfiler;
#X obj 36 208 bng 30 250 50 0 empty empty empty 17 7 0 10 -4032 -1
-1;
#X text 72 215 save array to WAVE file;
#X obj 36 247 f;
#X obj 137 243 r play-SR;
#X msg 15 116 \; sum2 normalize;
#X msg 36 273 write -wave -bytes 4 -rate \$1 ./wav_out/windowed sum2
;
#X connect 3 0 5 0;
#X connect 5 0 8 0;
#X connect 6 0 5 1;
#X connect 8 0 2 0;
#X restore 1090 695 pd sumarray;
#X obj 727 653 del 50;
#X obj 584 521 r outdone;
#X obj 615 556 + 1;
#X obj 674 584 sel 0;
#X obj 584 554 f 0;
#X obj 674 553 mod 2;
#X floatatom 615 588 5 0 0 0 - - -, f 5;
#X msg 602 252 0;
#X obj 690 684 bng 15 250 50 0 empty empty empty 17 7 0 10 -262144
-1 -1;
#X obj 790 660 loadbang;
#X obj 358 619 -;
#X obj 230 293 tgl 15 0 empty empty empty 17 7 0 10 -262144 -1 -1 0
1;
#X obj 230 313 s mswitch;
#X obj 128 551 r cadence;
#X obj 128 576 t b f;
#X connect 0 0 9 0;
#X connect 1 0 9 0;
#X connect 2 0 12 0;
#X connect 2 0 10 0;
#X connect 2 0 20 0;
#X connect 2 0 32 0;
#X connect 2 0 109 0;
#X connect 2 0 115 0;
#X connect 3 0 9 0;
#X connect 4 0 6 0;
#X connect 4 1 12 0;
#X connect 5 0 4 0;
#X connect 10 0 11 0;
#X connect 12 0 4 1;
#X connect 14 0 18 0;
#X connect 14 0 22 0;
#X connect 14 0 94 0;
#X connect 15 0 17 0;
#X connect 15 0 1 0;
#X connect 15 0 93 0;
#X connect 17 0 16 0;
#X connect 18 0 16 0;
#X connect 20 0 19 0;
#X connect 20 0 15 0;
#X connect 21 0 19 0;
#X connect 21 0 14 0;
#X connect 22 0 9 0;
#X connect 24 0 23 0;
#X connect 26 0 25 0;
#X connect 26 0 25 1;
#X connect 27 0 33 0;
#X connect 27 0 38 0;
#X connect 28 0 27 0;
#X connect 30 0 27 0;
#X connect 31 0 27 0;
#X connect 32 0 27 0;
#X connect 34 0 37 0;
#X connect 34 0 43 0;
#X connect 38 0 41 0;
#X connect 39 0 40 0;
#X connect 41 0 39 0;
#X connect 42 0 41 0;
#X connect 42 1 39 1;
#X connect 43 0 44 0;
#X connect 43 1 42 0;
#X connect 44 0 42 0;
#X connect 45 0 144 4;
#X connect 46 0 68 1;
#X connect 47 0 68 0;
#X connect 48 0 68 2;
#X connect 49 0 68 3;
#X connect 50 0 68 4;
#X connect 51 0 68 6;
#X connect 56 0 26 0;
#X connect 57 0 56 1;
#X connect 58 0 57 0;
#X connect 62 0 34 0;
#X connect 63 0 34 0;
#X connect 64 0 34 0;
#X connect 68 0 56 0;
#X connect 68 1 67 0;
#X connect 68 2 45 0;
#X connect 68 3 66 0;
#X connect 68 4 144 2;
#X connect 69 0 68 5;
#X connect 70 0 71 0;
#X connect 71 0 69 0;
#X connect 73 0 81 2;
#X connect 74 0 81 0;
#X connect 75 0 78 1;
#X connect 76 0 75 0;
#X connect 78 0 80 0;
#X connect 80 0 79 0;
#X connect 80 0 79 1;
#X connect 81 0 78 0;
#X connect 81 1 92 0;
#X connect 83 0 81 1;
#X connect 83 0 88 0;
#X connect 84 0 85 0;
#X connect 85 0 89 0;
#X connect 86 0 88 0;
#X connect 86 1 88 1;
#X connect 88 0 82 0;
#X connect 89 0 86 0;
#X connect 89 0 110 0;
#X connect 89 0 111 0;
#X connect 90 0 89 0;
#X connect 90 1 89 1;
#X connect 91 0 90 0;
#X connect 93 0 95 0;
#X connect 94 0 95 0;
#X connect 96 0 97 0;
#X connect 97 0 47 0;
#X connect 97 1 46 0;
#X connect 99 0 98 0;
#X connect 99 0 161 0;
#X connect 99 1 108 0;
#X connect 100 0 99 0;
#X connect 101 0 98 0;
#X connect 104 0 105 0;
#X connect 105 0 106 0;
#X connect 106 0 108 0;
#X connect 108 0 98 0;
#X connect 109 0 23 0;
#X connect 112 0 113 0;
#X connect 115 0 112 0;
#X connect 116 0 144 3;
#X connect 117 0 131 1;
#X connect 117 0 140 0;
#X connect 118 0 131 0;
#X connect 119 0 131 2;
#X connect 120 0 131 3;
#X connect 121 0 131 4;
#X connect 122 0 131 6;
#X connect 131 0 56 0;
#X connect 131 1 130 0;
#X connect 131 2 116 0;
#X connect 131 3 129 0;
#X connect 131 4 144 1;
#X connect 132 0 131 5;
#X connect 133 0 134 0;
#X connect 134 0 132 0;
#X connect 136 0 137 0;
#X connect 137 0 118 0;
#X connect 137 1 117 0;
#X connect 138 0 139 0;
#X connect 140 0 164 1;
#X connect 141 0 139 1;
#X connect 142 0 141 1;
#X connect 144 0 154 0;
#X connect 145 0 144 0;
#X connect 146 0 151 0;
#X connect 150 0 138 0;
#X connect 151 0 139 2;
#X connect 152 0 150 1;
#X connect 154 0 162 0;
#X connect 155 0 158 0;
#X connect 156 0 158 1;
#X connect 156 0 159 0;
#X connect 156 0 160 0;
#X connect 157 0 145 0;
#X connect 158 0 156 0;
#X connect 159 0 157 0;
#X connect 161 0 158 1;
#X connect 162 0 150 0;
#X connect 163 0 152 0;
#X connect 164 0 141 0;
#X connect 165 0 166 0;
#X connect 167 0 168 0;
#X connect 168 0 38 0;
#X connect 168 1 38 1;
