#N canvas 83 151 595 409 10;
#X obj 439 11 r block-size;
#X obj 62 46 bng 15 250 50 0 empty empty empty 17 7 0 10 -262144 -1
-1;
#X obj 61 20 inlet;
#X obj 89 169 fft~;
#N canvas 1 79 274 375 ramp-gen 0;
#X obj 145 66 r block-size;
#X obj 68 66 samplerate~;
#X obj 68 40 bng 15 250 50 0 empty empty empty 17 7 0 10 -262144 -1
-1;
#X obj 68 89 t b f;
#X obj 69 136 / 1;
#X obj 68 112 f, f 8;
#X floatatom 69 182 5 0 0 0 - - -, f 5;
#X obj 69 158 * 1000;
#X msg 69 259 0 \, \$2 \$1;
#X obj 69 237 pack, f 13;
#X obj 69 281 line~;
#X obj 23 237 delay;
#X obj 26 210 t b f f;
#X obj 193 278 bng 15 250 50 0 empty empty empty 17 7 0 10 -262144
-1 -1;
#X obj 196 325 outlet;
#X obj 69 325 outlet~;
#X obj 67 17 inlet;
#X obj 142 281 line;
#X obj 141 324 outlet;
#X connect 0 0 5 1;
#X connect 0 0 9 1;
#X connect 1 0 3 0;
#X connect 2 0 1 0;
#X connect 3 0 5 0;
#X connect 3 1 4 1;
#X connect 4 0 7 0;
#X connect 5 0 4 0;
#X connect 6 0 12 0;
#X connect 7 0 6 0;
#X connect 8 0 10 0;
#X connect 8 0 17 0;
#X connect 9 0 8 0;
#X connect 10 0 15 0;
#X connect 11 0 13 0;
#X connect 12 0 11 0;
#X connect 12 1 11 1;
#X connect 12 2 9 0;
#X connect 13 0 14 0;
#X connect 16 0 2 0;
#X connect 17 0 18 0;
#X restore 90 100 pd ramp-gen;
#X obj 210 349 outlet;
#X obj 210 302 / 1;
#X obj 228 276 r block-size;
#X obj 210 323 * 127;
#X obj 401 351 outlet;
#X obj 401 117 t b b;
#X text 255 349 for progress bar;
#X text 447 350 bang when done;
#X obj 89 140 tabread~ \$1-input-r;
#X obj 231 140 tabread~ \$1-input-i;
#X obj 473 165 f \$1;
#X msg 437 219 \; \$1-fft-r1 normalize 2;
#X msg 437 262 \; \$1-fft-i1 normalize 2;
#X obj 50 265 tabwrite~ \$1-fft-r1;
#X obj 35 291 tabwrite~ \$1-fft-i1;
#X msg 439 38 set \$1 1 1;
#X obj 375 45 tgl 15 0 empty empty empty 17 7 0 10 -262144 -1 -1 0
1;
#X obj 440 67 switch~ 131072 1 1;
#X msg 373 18 0;
#X obj 239 178 sqrt;
#X obj 100 226 /~;
#X obj 139 227 /~;
#X connect 0 0 20 0;
#X connect 0 0 24 0;
#X connect 1 0 4 0;
#X connect 1 0 18 0;
#X connect 1 0 19 0;
#X connect 1 0 22 0;
#X connect 2 0 1 0;
#X connect 3 0 25 0;
#X connect 3 1 26 0;
#X connect 4 0 13 0;
#X connect 4 0 14 0;
#X connect 4 1 6 0;
#X connect 4 2 10 0;
#X connect 4 2 23 0;
#X connect 6 0 8 0;
#X connect 7 0 6 1;
#X connect 8 0 5 0;
#X connect 10 0 9 0;
#X connect 13 0 3 0;
#X connect 14 0 3 1;
#X connect 15 0 16 0;
#X connect 15 0 17 0;
#X connect 20 0 22 0;
#X connect 21 0 22 0;
#X connect 23 0 21 0;
#X connect 24 0 26 1;
#X connect 24 0 25 1;
#X connect 25 0 18 0;
#X connect 26 0 19 0;
