#N canvas 1 52 957 604 10;
#X msg 46 297 set \$1;
#X obj 90 329 makefilename;
#X obj 171 296 int;
#X obj 90 251 t b s;
#X obj 258 242 inlet;
#X msg 87 416 set \$1;
#X obj 131 448 makefilename;
#X obj 212 415 int;
#X obj 90 383 t b s;
#X obj 331 318 inlet;
#X obj 285 378 abs;
#X text 301 244 l, f 2;
#X text 375 318 m;
#X msg 128 515 set \$1;
#X obj 172 547 makefilename;
#X obj 253 514 int;
#X obj 131 482 t b s;
#X obj 203 155 inlet;
#X text 251 155 day number;
#X msg 107 184 set \$1;
#X obj 90 72 symbol;
#X obj 129 26 r filestem;
#X obj 107 149 t b s;
#X obj 107 222 makefilename;
#X obj 398 407 inlet;
#X obj 90 117 makefilename %s.%%dd_l%%%%d_m%%%%%%%%d_n%%%%%%%%%%%%%%%%d
;
#X obj 185 183 int;
#X text 441 409 n, f 2;
#X obj 44 16 inlet;
#X text 61 43 go;
#X obj 44 46 bng 15 250 50 0 empty empty empty 17 7 0 10 -262144 -1
-1;
#X obj 129 48 symbol;
#X obj 172 578 s \$1-outstring;
#X connect 0 0 1 0;
#X connect 1 0 8 0;
#X connect 2 0 1 0;
#X connect 3 0 2 0;
#X connect 3 1 0 0;
#X connect 4 0 2 1;
#X connect 5 0 6 0;
#X connect 6 0 16 0;
#X connect 7 0 6 0;
#X connect 8 0 7 0;
#X connect 8 1 5 0;
#X connect 9 0 10 0;
#X connect 10 0 7 1;
#X connect 13 0 14 0;
#X connect 14 0 32 0;
#X connect 15 0 14 0;
#X connect 16 0 15 0;
#X connect 16 1 13 0;
#X connect 17 0 26 1;
#X connect 19 0 23 0;
#X connect 20 0 25 0;
#X connect 21 0 31 0;
#X connect 22 0 26 0;
#X connect 22 1 19 0;
#X connect 23 0 3 0;
#X connect 24 0 15 1;
#X connect 25 0 22 0;
#X connect 26 0 23 0;
#X connect 28 0 30 0;
#X connect 30 0 20 0;
#X connect 31 0 20 1;
