#N canvas 1 54 1351 686 10;
#X obj 502 294 loadbang;
#X obj 116 24 inlet;
#X obj 403 41 inlet;
#X obj 403 72 nbx 10 20 0 22100 0 0 empty empty empty 0 -8 0 10 -204786
-1 -1 10 256;
#X obj 393 425 + 1;
#X obj 351 425 int;
#X obj 351 390 vuzi 10;
#X floatatom 204 492 5 0 0 0 - - -, f 5;
#X obj 115 59 nbx 10 20 0 44100 0 0 empty empty empty 0 -8 0 10 -204786
-1 -1 100 256;
#X text 167 21 bin number;
#X text 452 41 width (in bin#);
#X obj 204 597 list append;
#X obj 204 535 t f b;
#X msg 203 631 \; \$2-gain \$1 1;
#X obj 363 615 r block-size;
#X msg 502 357 \; \$1-gain const 0;
#X obj 398 556 outlet;
#X text 446 557 done generating gain array;
#X obj 210 178 -;
#X obj 210 210 int;
#X obj 265 311 t b f b;
#X obj 385 193 +;
#X obj 367 262 int;
#X obj 331 290 -;
#X obj 341 338 + 1;
#X obj 288 236 t f b f;
#X obj 288 379 - 1;
#X floatatom 210 248 5 0 0 0 - - -, f 5;
#X floatatom 388 364 5 0 0 0 - - -, f 5;
#X floatatom 385 229 5 0 0 0 - - -, f 5;
#X obj 371 149 float;
#X text 178 93 order needed to be defined;
#X obj 264 567 f \$1;
#X obj 363 646 array size \$1-gain;
#X obj 502 328 f \$1;
#X obj 114 91 t f f b;
#X connect 0 0 34 0;
#X connect 1 0 8 0;
#X connect 2 0 3 0;
#X connect 3 0 30 1;
#X connect 4 0 5 1;
#X connect 4 0 7 0;
#X connect 5 0 4 0;
#X connect 6 0 5 0;
#X connect 6 1 16 0;
#X connect 7 0 12 0;
#X connect 8 0 35 0;
#X connect 11 0 13 0;
#X connect 12 0 11 0;
#X connect 12 1 32 0;
#X connect 14 0 33 0;
#X connect 18 0 19 0;
#X connect 19 0 27 0;
#X connect 20 0 6 0;
#X connect 20 1 26 0;
#X connect 20 2 34 0;
#X connect 21 0 29 0;
#X connect 22 0 23 0;
#X connect 23 0 24 0;
#X connect 24 0 28 0;
#X connect 25 0 20 0;
#X connect 25 1 22 0;
#X connect 25 2 23 1;
#X connect 26 0 5 1;
#X connect 27 0 25 0;
#X connect 28 0 6 1;
#X connect 29 0 22 1;
#X connect 30 0 21 1;
#X connect 30 0 18 1;
#X connect 32 0 11 1;
#X connect 34 0 15 0;
#X connect 35 0 18 0;
#X connect 35 1 21 0;
#X connect 35 2 30 0;
