#N canvas 813 62 731 718 10;
#X floatatom 277 169 0 0 0 0 - - -;
#X obj 258 120 notein;
#X floatatom 259 188 0 0 0 0 - - -;
#X text 285 189 note;
#X text 304 168 velocity;
#X floatatom 370 192 0 0 0 0 - - -;
#X floatatom 386 174 0 0 0 0 - - -;
#X obj 368 123 ctlin;
#X text 410 171 value;
#X text 398 194 controller number, f 10;
#X obj 369 426 route;
#X obj 105 104 tgl 15 0 empty empty LEARN 17 7 0 10 -262144 -1 -1 0
1;
#X obj 369 318 spigot;
#X obj 419 255 != 1;
#X obj 419 284 tgl 15 0 empty empty empty 17 7 0 10 -262144 -1 -1 1
1;
#X obj 181 5 loadbang;
#X obj 456 364 spigot;
#X obj 369 363 pack;
#X obj 457 391 t f b;
#X obj 369 522 bng 15 250 50 0 empty empty empty 17 7 0 10 -262144
-1 -1;
#X obj 369 464 sel 127;
#X obj 557 302 sel 0;
#X text 615 300 all messages are either 0 or 127;
#X msg 181 27 0;
#X msg 557 327 0;
#X msg 589 327 127;
#X obj 419 231 pipe 250;
#X obj 369 152 swap;
#X obj 397 521 outlet;
#X obj 163 104 bng 16 250 50 0 empty empty FORGET 18 7 0 10 -262144
-1 -1;
#X msg 164 383 999;
#X text 192 383 reset;
#X connect 0 0 21 0;
#X connect 1 0 2 0;
#X connect 1 1 0 0;
#X connect 2 0 16 0;
#X connect 2 0 12 0;
#X connect 5 0 12 0;
#X connect 5 0 16 0;
#X connect 6 0 21 0;
#X connect 7 0 27 0;
#X connect 7 1 27 1;
#X connect 10 0 20 0;
#X connect 11 0 16 1;
#X connect 11 0 26 0;
#X connect 12 0 17 0;
#X connect 13 0 14 0;
#X connect 14 0 12 1;
#X connect 15 0 23 0;
#X connect 16 0 18 0;
#X connect 17 0 10 0;
#X connect 18 0 10 1;
#X connect 18 1 23 0;
#X connect 20 0 19 0;
#X connect 20 0 28 0;
#X connect 21 0 24 0;
#X connect 21 1 25 0;
#X connect 23 0 11 0;
#X connect 24 0 17 1;
#X connect 25 0 17 1;
#X connect 26 0 13 0;
#X connect 27 0 5 0;
#X connect 27 1 6 0;
#X connect 29 0 30 0;
#X connect 29 0 23 0;
#X connect 30 0 10 1;
#X coords 0 -1 1 1 120 24 2 100 100;
