#N canvas 1 52 1265 635 10;
#X floatatom 652 164 5 0 0 0 - - -, f 5;
#X msg 431 67 set \$1;
#X msg 431 103 1512-output;
#X floatatom 701 164 5 0 0 0 - - -, f 5;
#X msg 554 66 set \$1;
#X msg 554 102 1534-output;
#X obj 332 168 until;
#X obj 332 196 f;
#X obj 363 198 + 1;
#X obj 407 198 sel 0;
#X obj 440 281 tabread;
#X obj 366 280 tabread;
#X obj 414 435 +;
#X obj 254 72 bng 15 250 50 0 empty empty empty 17 7 0 10 -262144 -1
-1;
#X obj 277 107 float;
#X obj 458 372 *;
#X obj 386 372 *;
#X obj 254 29 inlet;
#X obj 431 31 inlet;
#X obj 554 28 inlet;
#X obj 652 126 inlet;
#X obj 701 126 inlet;
#X obj 594 488 soundfiler;
#X obj 386 336 t b f;
#X obj 458 334 t b f;
#X obj 414 398 t b f;
#X obj 240 486 tabwrite \$1;
#X obj 594 342 bng 30 250 50 0 empty empty empty 17 7 0 10 -4032 -1
-1;
#X text 630 348 save array to WAVE file;
#X obj 594 406 list append;
#X obj 668 377 r play-SR;
#X obj 594 380 symbol \$1;
#X msg 254 131 -1;
#X obj 758 105 loadbang;
#X msg 758 132 1;
#X obj 345 37 r nsamples;
#X obj 345 123 min;
#X obj 345 66 t b f;
#X obj 324 15 r block-size;
#X obj 439 170 - 1;
#X obj 607 284 outlet;
#X msg 594 449 write -wave -bytes 4 -rate \$2 ./wav_out/modesum \$1
;
#X obj 128 283 array size \$1;
#X connect 0 0 23 0;
#X connect 1 0 2 0;
#X connect 1 0 11 0;
#X connect 3 0 24 0;
#X connect 4 0 5 0;
#X connect 4 0 10 0;
#X connect 6 0 7 0;
#X connect 7 0 8 0;
#X connect 8 0 9 0;
#X connect 8 0 7 1;
#X connect 8 0 26 1;
#X connect 8 0 11 0;
#X connect 8 0 10 0;
#X connect 9 0 6 1;
#X connect 9 0 40 0;
#X connect 10 0 15 0;
#X connect 11 0 16 0;
#X connect 12 0 26 0;
#X connect 13 0 14 0;
#X connect 13 0 32 0;
#X connect 14 0 6 0;
#X connect 15 0 25 0;
#X connect 16 0 12 0;
#X connect 17 0 13 0;
#X connect 18 0 1 0;
#X connect 19 0 4 0;
#X connect 20 0 0 0;
#X connect 21 0 3 0;
#X connect 23 0 16 0;
#X connect 23 1 16 1;
#X connect 24 0 15 0;
#X connect 24 1 15 1;
#X connect 25 0 12 0;
#X connect 25 1 12 1;
#X connect 27 0 31 0;
#X connect 29 0 41 0;
#X connect 30 0 29 1;
#X connect 31 0 29 0;
#X connect 32 0 7 1;
#X connect 33 0 34 0;
#X connect 34 0 0 0;
#X connect 34 0 3 0;
#X connect 35 0 37 0;
#X connect 36 0 14 1;
#X connect 36 0 39 0;
#X connect 36 0 42 0;
#X connect 37 0 36 0;
#X connect 37 1 36 1;
#X connect 38 0 36 0;
#X connect 39 0 9 1;
#X connect 41 0 22 0;
