#N canvas 1 52 1265 635 10;
#X floatatom 701 164 6 0 0 0 - - -, f 6;
#X msg 554 118 set \$1;
#X msg 554 154 1010-output;
#X obj 332 168 until;
#X obj 332 196 f;
#X obj 369 221 + 1;
#X obj 407 198 sel 0;
#X obj 427 278 tabread;
#X obj 414 435 +;
#X obj 254 72 bng 15 250 50 0 empty empty empty 17 7 0 10 -262144 -1
-1;
#X obj 277 107 float;
#X obj 458 372 *;
#X obj 254 29 inlet;
#X obj 554 28 inlet;
#X obj 701 126 inlet;
#X obj 114 590 soundfiler;
#X obj 458 334 t b f;
#X obj 275 513 tabwrite \$1;
#X obj 114 442 bng 30 250 50 0 empty empty empty 17 7 0 10 -4032 -1
-1;
#X text 150 448 save array to WAVE file;
#X obj 114 506 list append;
#X obj 188 477 r play-SR;
#X obj 114 480 symbol \$1;
#X msg 254 131 -1;
#X obj 366 353 tabread \$1;
#X obj 758 105 loadbang;
#X msg 758 132 1;
#X obj 554 60 list prepend symbol;
#X obj 554 85 route list;
#X obj 275 247 t f f f;
#X obj 395 46 r nsamples;
#X obj 395 116 min;
#X obj 395 77 t b f;
#X obj 378 24 r block-size;
#X obj 438 148 - 1;
#X obj 490 238 outlet;
#X msg 114 551 write -wave -bytes 4 -rate \$2 ./wav_out/modesum \$1
;
#X connect 0 0 16 0;
#X connect 1 0 2 0;
#X connect 1 0 7 0;
#X connect 3 0 4 0;
#X connect 4 0 5 0;
#X connect 5 0 6 0;
#X connect 5 0 4 1;
#X connect 5 0 29 0;
#X connect 6 0 3 1;
#X connect 6 0 35 0;
#X connect 7 0 11 0;
#X connect 8 0 17 0;
#X connect 9 0 10 0;
#X connect 9 0 23 0;
#X connect 10 0 3 0;
#X connect 11 0 8 1;
#X connect 12 0 9 0;
#X connect 13 0 27 0;
#X connect 14 0 0 0;
#X connect 16 0 11 0;
#X connect 16 1 11 1;
#X connect 18 0 22 0;
#X connect 20 0 36 0;
#X connect 21 0 20 1;
#X connect 22 0 20 0;
#X connect 23 0 4 1;
#X connect 24 0 8 0;
#X connect 25 0 26 0;
#X connect 26 0 0 0;
#X connect 27 0 28 0;
#X connect 28 0 1 0;
#X connect 29 0 24 0;
#X connect 29 1 7 0;
#X connect 29 2 17 1;
#X connect 30 0 32 0;
#X connect 31 0 10 1;
#X connect 31 0 34 0;
#X connect 32 0 31 0;
#X connect 32 1 31 1;
#X connect 33 0 31 0;
#X connect 34 0 6 1;
#X connect 36 0 15 0;
