#N canvas 804 350 240 258 10;
#X obj 54 135 t b;
#X floatatom 19 43 5 0 0 0 - - -, f 5;
#X obj 17 15 inlet;
#X obj 55 197 outlet;
#X text 54 17 any number;
#X text 53 222 number;
#X obj 16 166 f 0;
#X obj 22 74 t f f;
#X obj 54 168 f 1;
#X obj 22 109 select;
#X connect 0 0 8 0;
#X connect 1 0 7 0;
#X connect 2 0 1 0;
#X connect 6 0 3 0;
#X connect 7 0 9 1;
#X connect 7 1 9 0;
#X connect 8 0 3 0;
#X connect 9 0 6 0;
#X connect 9 1 0 0;
