#N canvas 1 52 685 635 12;
#X obj 246 132 nbx 10 20 -1e+37 1e+37 0 0 empty empty empty 0 -8 0
10 -204786 -1 -1 8000 256;
#X obj 266 62 loadbang;
#X msg 266 92 44100;
#X text 352 135 desired SR;
#X obj 192 919 outlet~;
#X text 310 661 sample playback;
#X obj 48 103 inlet;
#X obj 48 311 tgl 15 0 empty empty empty 17 7 0 10 -262144 -1 -1 0
1;
#X obj 193 887 *~;
#X obj 48 340 switch~;
#X obj 193 664 tabread4~ \$1;
#X obj 223 746 tabread~ window;
#X obj 244 554 tgl 15 0 empty empty empty 17 7 0 10 -262144 -1 -1 1
1;
#X obj 223 847 +~;
#X obj 278 711 == 0;
#X obj 224 790 *~;
#X obj 404 503 loadbang;
#X msg 404 534 1;
#X obj 244 521 r window-on;
#X obj 246 29 r play-SR;
#X obj 193 208 rampgen;
#X obj 219 386 outlet;
#X obj 219 329 / 1;
#X obj 219 360 * 127;
#X text 276 385 for progress bar;
#X obj 306 221 r nsamples;
#X obj 306 309 min;
#X obj 306 256 t b f;
#X obj 280 190 r block-size;
#X msg 48 265 1, f 4;
#X msg 111 263 0;
#X msg 498 394 set \$1;
#X msg 498 430 1006-output;
#X obj 498 304 inlet;
#X obj 48 140 bng 15 250 50 0 empty empty empty 17 7 0 10 -262144 -1
-1;
#X obj 400 906 *~;
#X obj 401 993 dac~ 1 2;
#X obj 400 938 audio_safety~;
#X obj 421 852 * 0.01;
#X obj 421 824 nbx 10 20 0 100 0 0 empty empty empty 0 -8 0 10 -204786
-1 -1 50 256;
#X text 490 844 volume (0-100);
#X obj 421 768 r playvolume;
#X connect 0 0 20 1;
#X connect 1 0 2 0;
#X connect 2 0 0 0;
#X connect 6 0 34 0;
#X connect 7 0 9 0;
#X connect 8 0 4 0;
#X connect 8 0 35 0;
#X connect 10 0 8 0;
#X connect 11 0 15 0;
#X connect 12 0 14 0;
#X connect 12 0 15 1;
#X connect 13 0 8 1;
#X connect 14 0 13 1;
#X connect 15 0 13 0;
#X connect 16 0 17 0;
#X connect 17 0 12 0;
#X connect 18 0 12 0;
#X connect 19 0 0 0;
#X connect 20 0 10 0;
#X connect 20 0 11 0;
#X connect 20 1 22 0;
#X connect 20 2 30 0;
#X connect 22 0 23 0;
#X connect 23 0 21 0;
#X connect 25 0 27 0;
#X connect 26 0 22 1;
#X connect 27 0 26 0;
#X connect 27 1 26 1;
#X connect 28 0 26 0;
#X connect 29 0 7 0;
#X connect 30 0 7 0;
#X connect 31 0 32 0;
#X connect 31 0 10 0;
#X connect 33 0 31 0;
#X connect 34 0 20 0;
#X connect 34 0 29 0;
#X connect 35 0 37 0;
#X connect 37 0 36 0;
#X connect 37 0 36 1;
#X connect 38 0 35 1;
#X connect 39 0 38 0;
#X connect 41 0 39 0;
