#N canvas 495 180 595 409 10;
#X obj 23 42 bng 15 250 50 0 empty empty empty 17 7 0 10 -262144 -1
-1;
#X obj 69 136 / 1;
#X obj 69 110 f, f 8;
#X floatatom 69 182 5 0 0 0 - - -, f 5;
#X obj 69 158 * 1000;
#X msg 69 259 0 \, \$2 \$1;
#X obj 69 237 pack, f 13;
#X obj 70 291 line~;
#X obj 20 235 delay;
#X obj 23 208 t b f f;
#X obj 20 340 bng 15 250 50 0 empty empty empty 17 7 0 10 -262144 -1
-1;
#X obj 205 355 outlet;
#X obj 69 325 outlet~;
#X obj 23 19 inlet;
#X obj 141 290 line;
#X obj 141 324 outlet;
#X obj 87 22 inlet;
#X text 134 22 sample rate;
#X obj 203 96 r nsamples;
#X obj 203 184 min;
#X obj 203 131 t b f;
#X obj 177 65 r block-size;
#X connect 0 0 2 0;
#X connect 1 0 4 0;
#X connect 2 0 1 0;
#X connect 3 0 9 0;
#X connect 4 0 3 0;
#X connect 5 0 7 0;
#X connect 5 0 14 0;
#X connect 6 0 5 0;
#X connect 7 0 12 0;
#X connect 8 0 10 0;
#X connect 9 0 8 0;
#X connect 9 1 8 1;
#X connect 9 2 6 0;
#X connect 10 0 11 0;
#X connect 13 0 0 0;
#X connect 14 0 15 0;
#X connect 16 0 1 1;
#X connect 18 0 20 0;
#X connect 19 0 6 1;
#X connect 19 0 2 1;
#X connect 20 0 19 0;
#X connect 20 1 19 1;
#X connect 21 0 19 0;
