#N canvas 1 52 1265 683 10;
#X floatatom 504 49 5 0 0 0 - day -, f 5;
#X floatatom 669 118 5 0 0 0 - n1 -, f 5;
#X obj 893 84 tgl 40 0 empty t1 empty 17 7 0 10 -261234 -1 -1 0 1;
#X obj 40 100 set-directory;
#X obj 40 63 bng 30 250 50 0 empty empty empty 17 7 0 10 -4032 -1 -1
;
#X obj 41 125 s data-dir;
#X msg 63 156 \; pd dsp 1;
#X msg 62 191 \; pd dsp 0;
#X text 491 27 day number;
#X obj 297 500 *~;
#X text 936 88 on/off;
#X obj 45 327 nbx 10 20 -1e+37 1e+37 0 0 empty empty empty 0 -8 0 10
-204786 -1 -1 22050 256;
#X msg 45 299 44100;
#X text 151 331 desired SR;
#X msg 100 299 22050;
#X msg 157 299 11025;
#X msg 87 269 8000;
#X obj 45 370 s play-SR;
#X obj 298 587 dac~ 1 2;
#X obj 297 532 audio_safety~;
#X obj 276 332 * 0.01;
#X obj 276 304 nbx 10 20 0 100 0 0 empty vl empty 0 -8 0 10 -204786
-1 -1 0 256;
#X text 276 286 volume (0-100);
#X obj 45 437 nbx 10 20 0 22100 0 0 empty empty empty 0 -8 0 10 -204786
-1 -1 8 256;
#X text 152 447 2 = 1 octave lower;
#X text 149 432 downshift factor;
#X msg 45 406 2;
#X msg 118 409 8;
#X msg 81 407 4;
#X obj 95 555 * 60;
#X obj 95 606 /;
#X floatatom 77 633 10 0 0 0 - - -, f 10;
#X obj 95 582 f;
#X obj 39 607 t b f;
#X obj 13 524 sel 0;
#X msg 13 551 1;
#X floatatom 893 130 8 0 0 0 - - f1, f 8;
#X text 16 652 transposition factor;
#X text 892 64 mode 1;
#X floatatom 686 173 5 0 0 0 - n2 -, f 5;
#X obj 993 135 tgl 40 0 empty t2 empty 17 7 0 10 -261234 -1 -1 0 1
;
#X text 1035 140 on/off;
#X floatatom 992 182 8 0 0 0 - - f2, f 8;
#X text 990 116 mode 2;
#X floatatom 699 231 5 0 0 0 - n3 -, f 5;
#X obj 916 213 tgl 40 0 empty t3 empty 17 7 0 10 -261234 -1 -1 0 1
;
#X text 958 218 on/off;
#X floatatom 915 260 8 0 0 0 - - f3, f 8;
#X text 913 191 mode 3;
#X floatatom 706 281 5 0 0 0 - n4 -, f 5;
#X obj 1021 248 tgl 40 0 empty t4 empty 17 7 0 10 -261234 -1 -1 0 1
;
#X text 1063 253 on/off;
#X floatatom 1020 295 8 0 0 0 - - f4, f 8;
#X text 1019 228 mode 4;
#X floatatom 714 338 5 0 0 0 - n5 -, f 5;
#X obj 947 320 tgl 40 0 empty t5 empty 17 7 0 10 -261234 -1 -1 0 1
;
#X text 989 325 on/off;
#X floatatom 946 367 8 0 0 0 - - f5, f 8;
#X text 945 299 mode 5;
#X text 956 129 Hz;
#X text 1053 181 Hz;
#X text 978 261 Hz;
#X text 1082 295 Hz;
#X text 1006 366 Hz;
#X obj 555 144 modefilter, f 33;
#X obj 572 201 modefilter, f 33;
#X obj 585 257 modefilter, f 33;
#X obj 592 310 modefilter, f 33;
#X obj 600 365 modefilter, f 33;
#X msg 280 75 65536;
#X msg 273 52 131072;
#X obj 256 9 loadbang;
#X msg 275 106 32768;
#X obj 245 139 s block-size;
#X msg 352 46 50;
#X obj 352 78 s window-ramp;
#X msg 164 60 ../data, f 10;
#X obj 371 110 window-gen;
#X obj 218 197 bng 15 250 50 0 empty empty empty 17 7 0 10 -262144
-1 -1;
#X obj 161 198 bng 15 250 50 0 empty empty empty 17 7 0 10 -262144
-1 -1;
#X obj 161 263 s cadence;
#X msg 161 225 60;
#X msg 218 225 45;
#X obj 143 167 s filestem;
#X msg 161 99 mdi;
#X msg 176 124 hmi;
#X msg 272 170 262144;
#X obj 355 197 s fileblank;
#X msg 355 142 average.modes;
#X msg 371 170 %dd.modes;
#X obj 277 207 tgl 15 0 empty empty empty 17 7 0 10 -262144 -1 -1 0
1;
#X obj 277 227 s mswitch;
#X obj 45 468 s shiftfactor;
#X obj 102 505 r cadence;
#X obj 102 531 t b f;
#X floatatom 823 48 5 0 0 0 - w -, f 5;
#X text 817 30 width mulitplier;
#N canvas 166 66 1514 962 scalepanel 1;
#X obj 473 32 bng 50 250 50 0 startbang empty empty 17 7 0 10 -262144
-1 -1;
#X text 468 15 find modes;
#X floatatom 1076 17 5 0 0 0 - - day, f 5;
#X floatatom 1076 36 5 0 0 0 - - l, f 5;
#X floatatom 1077 56 5 0 0 0 - - m, f 5;
#X floatatom 1077 75 5 0 0 0 - - w, f 5;
#X text 1121 16 day;
#X text 1123 34 l;
#X text 1126 54 m;
#X text 1124 73 width;
#X floatatom 1082 173 5 0 0 0 - - vs, f 5;
#X floatatom 1082 192 5 0 0 0 - - vl, f 5;
#X text 1081 149 volume;
#X text 1128 172 single;
#X text 1130 192 loop;
#X obj 7 372 keyboard 1;
#X obj 101 15 keyboard 2;
#X obj 171 372 keyboard 3;
#X obj 265 15 keyboard 4;
#X obj 335 373 keyboard 5;
#X obj 499 373 keyboard 6;
#X obj 577 16 keyboard 7;
#X obj 662 373 keyboard 8;
#X obj 741 16 keyboard 9;
#X obj 826 373 keyboard 10;
#X obj 904 16 keyboard 11;
#X obj 990 373 keyboard 12;
#X restore 37 23 pd scalepanel;
#X obj 412 242 bng 15 250 50 0 empty startbang empty 17 7 0 10 -262144
-1 -1;
#X floatatom 600 50 5 0 0 0 - l -, f 5;
#X floatatom 736 57 5 0 0 0 - m -, f 5;
#X floatatom 723 395 5 0 0 0 - n6 -, f 5;
#X floatatom 740 449 5 0 0 0 - n7 -, f 5;
#X floatatom 753 508 5 0 0 0 - n8 -, f 5;
#X floatatom 760 558 5 0 0 0 - n9 -, f 5;
#X floatatom 768 615 5 0 0 0 - n10 -, f 5;
#X obj 609 421 modefilter, f 33;
#X obj 626 478 modefilter, f 33;
#X obj 639 534 modefilter, f 33;
#X obj 646 587 modefilter, f 33;
#X obj 654 642 modefilter, f 33;
#X text 595 29 degree l;
#X text 731 25 azimuthal order m, f 10;
#X obj 1047 371 tgl 40 0 empty t6 empty 17 7 0 10 -261234 -1 -1 0 1
;
#X text 1090 375 on/off;
#X floatatom 1047 417 8 0 0 0 - - f6, f 8;
#X obj 933 413 tgl 40 0 empty t7 empty 17 7 0 10 -261234 -1 -1 0 1
;
#X text 975 418 on/off;
#X floatatom 932 460 8 0 0 0 - - f7, f 8;
#X obj 1038 460 tgl 40 0 empty t8 empty 17 7 0 10 -261234 -1 -1 0 1
;
#X text 1080 465 on/off;
#X floatatom 1037 507 8 0 0 0 - - f8, f 8;
#X obj 968 528 tgl 40 0 empty t9 empty 17 7 0 10 -261234 -1 -1 0 1
;
#X text 1010 533 on/off;
#X floatatom 967 575 8 0 0 0 - - f9, f 8;
#X obj 1084 555 tgl 40 0 empty t10 empty 17 7 0 10 -261234 -1 -1 0
1;
#X text 1126 560 on/off;
#X floatatom 1083 602 8 0 0 0 - - f10, f 8;
#X text 1110 416 Hz;
#X text 993 459 Hz;
#X text 1100 508 Hz;
#X text 1029 575 Hz;
#X text 1143 601 Hz;
#X text 1046 351 mode 6;
#X text 930 394 mode 7;
#X text 1035 438 mode 8;
#X text 966 508 mode 9;
#X text 1082 534 mode 10;
#X obj 869 161 playarray;
#X obj 869 141 bng 15 250 50 0 empty b1 empty 17 7 0 10 -262144 -1
-1;
#X obj 1027 28 nbx 10 20 -1e+37 1e+37 0 0 empty vs empty 0 -8 0 10
-204786 -1 -1 0 256;
#X obj 1027 71 s playvolume;
#X obj 840 217 playarray;
#X obj 840 195 bng 15 250 50 0 empty b2 empty 17 7 0 10 -262144 -1
-1;
#X obj 841 274 playarray;
#X obj 841 254 bng 15 250 50 0 empty b3 empty 17 7 0 10 -262144 -1
-1;
#X obj 860 327 playarray;
#X obj 860 307 bng 15 250 50 0 empty b4 empty 17 7 0 10 -262144 -1
-1;
#X obj 857 382 playarray;
#X obj 857 362 bng 15 250 50 0 empty b5 empty 17 7 0 10 -262144 -1
-1;
#X obj 856 438 playarray;
#X obj 856 418 bng 15 250 50 0 empty b6 empty 17 7 0 10 -262144 -1
-1;
#X obj 873 495 playarray;
#X obj 873 472 bng 15 250 50 0 empty b7 empty 17 7 0 10 -262144 -1
-1;
#X obj 887 551 playarray;
#X obj 887 528 bng 15 250 50 0 empty b8 empty 17 7 0 10 -262144 -1
-1;
#X obj 894 603 playarray;
#X obj 894 580 bng 15 250 50 0 empty b9 empty 17 7 0 10 -262144 -1
-1;
#X obj 911 647 playarray;
#X obj 911 624 bng 15 250 50 0 empty b10 empty 17 7 0 10 -262144 -1
-1;
#X floatatom 780 670 5 0 0 0 - n11 -, f 5;
#X floatatom 788 727 5 0 0 0 - n12 -, f 5;
#X obj 666 699 modefilter, f 33;
#X obj 674 754 modefilter, f 33;
#X obj 988 640 tgl 40 0 empty t11 empty 17 7 0 10 -261234 -1 -1 0 1
;
#X floatatom 987 687 8 0 0 0 - - f11, f 8;
#X obj 1104 667 tgl 40 0 empty t12 empty 17 7 0 10 -261234 -1 -1 0
1;
#X text 1146 672 on/off;
#X floatatom 1103 714 8 0 0 0 - - f12, f 8;
#X text 1049 687 Hz;
#X text 1163 713 Hz;
#X obj 914 715 playarray;
#X obj 914 692 bng 15 250 50 0 empty b11 empty 17 7 0 10 -262144 -1
-1;
#X obj 931 759 playarray;
#X obj 931 736 bng 15 250 50 0 empty b12 empty 17 7 0 10 -262144 -1
-1;
#X text 988 622 mode 11;
#X text 1103 646 mode 12;
#X obj 170 593 s ndays;
#X msg 170 565 72;
#X msg 209 565 36;
#X msg 248 564 18;
#X msg 188 538 24;
#X msg 230 538 12;
#X connect 0 0 64 1;
#X connect 0 0 65 1;
#X connect 0 0 66 1;
#X connect 0 0 67 1;
#X connect 0 0 68 1;
#X connect 0 0 106 1;
#X connect 0 0 107 1;
#X connect 0 0 108 1;
#X connect 0 0 109 1;
#X connect 0 0 110 1;
#X connect 0 0 162 1;
#X connect 0 0 163 1;
#X connect 1 0 64 3;
#X connect 2 0 64 6;
#X connect 3 0 5 0;
#X connect 3 1 76 0;
#X connect 4 0 3 0;
#X connect 9 0 19 0;
#X connect 11 0 17 0;
#X connect 11 0 29 0;
#X connect 12 0 11 0;
#X connect 14 0 11 0;
#X connect 15 0 11 0;
#X connect 16 0 11 0;
#X connect 19 0 18 0;
#X connect 19 0 18 1;
#X connect 20 0 9 1;
#X connect 21 0 20 0;
#X connect 23 0 34 0;
#X connect 23 0 92 0;
#X connect 26 0 23 0;
#X connect 27 0 23 0;
#X connect 28 0 23 0;
#X connect 29 0 32 0;
#X connect 30 0 31 0;
#X connect 32 0 30 0;
#X connect 33 0 32 0;
#X connect 33 1 30 1;
#X connect 34 0 35 0;
#X connect 34 1 33 0;
#X connect 35 0 33 0;
#X connect 39 0 65 3;
#X connect 40 0 65 6;
#X connect 44 0 66 3;
#X connect 45 0 66 6;
#X connect 49 0 67 3;
#X connect 50 0 67 6;
#X connect 54 0 68 3;
#X connect 55 0 68 6;
#X connect 64 0 9 0;
#X connect 64 3 36 0;
#X connect 64 4 138 1;
#X connect 65 0 9 0;
#X connect 65 3 42 0;
#X connect 65 4 142 1;
#X connect 66 0 9 0;
#X connect 66 3 47 0;
#X connect 66 4 144 1;
#X connect 67 0 9 0;
#X connect 67 3 52 0;
#X connect 67 4 146 1;
#X connect 68 0 9 0;
#X connect 68 3 57 0;
#X connect 68 4 148 1;
#X connect 69 0 73 0;
#X connect 70 0 73 0;
#X connect 71 0 76 0;
#X connect 71 0 74 0;
#X connect 71 0 84 0;
#X connect 71 0 27 0;
#X connect 71 0 14 0;
#X connect 71 0 88 0;
#X connect 71 0 72 0;
#X connect 72 0 73 0;
#X connect 74 0 75 0;
#X connect 76 0 3 1;
#X connect 78 0 82 0;
#X connect 79 0 81 0;
#X connect 81 0 80 0;
#X connect 82 0 80 0;
#X connect 84 0 83 0;
#X connect 84 0 79 0;
#X connect 85 0 83 0;
#X connect 85 0 78 0;
#X connect 86 0 73 0;
#X connect 88 0 87 0;
#X connect 89 0 87 0;
#X connect 90 0 91 0;
#X connect 93 0 94 0;
#X connect 94 0 29 0;
#X connect 94 1 29 1;
#X connect 95 0 64 5;
#X connect 95 0 65 5;
#X connect 95 0 66 5;
#X connect 95 0 67 5;
#X connect 95 0 68 5;
#X connect 95 0 106 5;
#X connect 95 0 107 5;
#X connect 95 0 108 5;
#X connect 95 0 109 5;
#X connect 95 0 110 5;
#X connect 95 0 162 5;
#X connect 95 0 163 5;
#X connect 98 0 64 0;
#X connect 98 0 65 0;
#X connect 98 0 66 0;
#X connect 98 0 67 0;
#X connect 98 0 68 0;
#X connect 98 0 106 0;
#X connect 98 0 107 0;
#X connect 98 0 108 0;
#X connect 98 0 109 0;
#X connect 98 0 110 0;
#X connect 98 0 162 0;
#X connect 98 0 163 0;
#X connect 99 0 64 2;
#X connect 99 0 65 2;
#X connect 99 0 66 2;
#X connect 99 0 67 2;
#X connect 99 0 68 2;
#X connect 99 0 106 2;
#X connect 99 0 107 2;
#X connect 99 0 108 2;
#X connect 99 0 109 2;
#X connect 99 0 110 2;
#X connect 99 0 162 2;
#X connect 99 0 163 2;
#X connect 100 0 64 4;
#X connect 100 0 65 4;
#X connect 100 0 66 4;
#X connect 100 0 67 4;
#X connect 100 0 68 4;
#X connect 100 0 106 4;
#X connect 100 0 107 4;
#X connect 100 0 108 4;
#X connect 100 0 109 4;
#X connect 100 0 110 4;
#X connect 100 0 162 4;
#X connect 100 0 163 4;
#X connect 101 0 106 3;
#X connect 102 0 107 3;
#X connect 103 0 108 3;
#X connect 104 0 109 3;
#X connect 105 0 110 3;
#X connect 106 0 9 0;
#X connect 106 3 115 0;
#X connect 106 4 150 1;
#X connect 107 0 9 0;
#X connect 107 3 118 0;
#X connect 107 4 152 1;
#X connect 108 0 9 0;
#X connect 108 3 121 0;
#X connect 108 4 154 1;
#X connect 109 0 9 0;
#X connect 109 3 124 0;
#X connect 109 4 156 1;
#X connect 110 0 9 0;
#X connect 110 3 127 0;
#X connect 110 4 158 1;
#X connect 113 0 106 6;
#X connect 116 0 107 6;
#X connect 119 0 108 6;
#X connect 122 0 109 6;
#X connect 125 0 110 6;
#X connect 139 0 138 0;
#X connect 140 0 141 0;
#X connect 143 0 142 0;
#X connect 145 0 144 0;
#X connect 147 0 146 0;
#X connect 149 0 148 0;
#X connect 151 0 150 0;
#X connect 153 0 152 0;
#X connect 155 0 154 0;
#X connect 157 0 156 0;
#X connect 159 0 158 0;
#X connect 160 0 162 3;
#X connect 161 0 163 3;
#X connect 162 0 9 0;
#X connect 162 3 165 0;
#X connect 162 4 171 1;
#X connect 163 0 9 0;
#X connect 163 3 168 0;
#X connect 163 4 173 1;
#X connect 164 0 162 6;
#X connect 166 0 163 6;
#X connect 172 0 171 0;
#X connect 174 0 173 0;
#X connect 178 0 177 0;
#X connect 179 0 177 0;
#X connect 180 0 177 0;
#X connect 181 0 177 0;
#X connect 182 0 177 0;
