#N canvas 958 189 240 258 10;
#X obj 95 154 t b;
#X obj 22 -39 inlet;
#X obj 95 215 outlet;
#X text 52 258 number;
#X obj 21 172 f 0;
#X obj 95 182 f 1;
#X text 64 -39 any symbol;
#X msg 137 22 mdi;
#X msg 137 -9 set \$1;
#X msg 23 4 symbol \$1;
#X obj 23 61 t s s;
#X obj 21 122 select asdf;
#X connect 0 0 5 0;
#X connect 1 0 8 0;
#X connect 1 0 9 0;
#X connect 4 0 2 0;
#X connect 5 0 2 0;
#X connect 8 0 7 0;
#X connect 9 0 10 0;
#X connect 10 0 11 1;
#X connect 10 1 11 0;
#X connect 11 0 4 0;
#X connect 11 1 0 0;
