#N canvas 92 142 1133 518 12;
#X msg 13 300 read -c ../data/.average.modes;
#X obj 566 162 pack;
#X obj 566 206 sel -1;
#X obj 574 71 nbx 5 14 -1e+37 1e+37 0 0 empty empty empty 0 -8 0 10
-262144 -1 -1 0 256;
#X obj 566 105 int;
#X obj 443 -158 bng 15 250 50 0 empty empty empty 17 7 0 10 -262144
-1 -1;
#X obj 574 48 inlet;
#X obj 588 476 outlet;
#X obj 654 476 outlet;
#X obj 715 476 outlet;
#X obj 880 494 outlet;
#X text 1005 332 1) spherical harmonic degree l;
#X text 1005 350 2) radial order n;
#X text 1005 367 3) peak (center) frequency;
#X text 1005 402 5) full width at half max;
#X obj 701 78 nbx 5 14 -1e+37 1e+37 0 0 empty empty empty 0 -8 0 10
-262144 -1 -1 0 256;
#X obj 680 109 int;
#X obj 701 42 inlet;
#X text 1004 384 4) amplitude;
#X msg 50 258 set read -c \$1;
#X obj 32 -211 r data-dir;
#X obj 28 223 t b s;
#X floatatom 640 235 5 0 0 0 - - -, f 5;
#X obj 441 -181 inlet;
#X msg 25 151 set \$1;
#X obj 69 183 makefilename;
#X obj 150 150 int;
#X obj 28 118 t b s;
#X obj 230 364 route list;
#X obj 230 339 list prepend symbol;
#X obj 230 389 makefilename %s.msplit;
#X msg 215 501 read -c ../data/.average.modes.msplit;
#X msg 252 459 set read -c \$1;
#X obj 230 424 t b s;
#X obj 822 4 inlet;
#X obj 822 36 nbx 5 14 -1e+37 1e+37 0 0 empty empty empty 0 -8 0 10
-262144 -1 -1 0 256;
#X obj 801 65 int;
#X obj 802 172 pack f f f;
#X obj 835 262 sel -1;
#X obj 32 -174 symbol;
#X msg 503 261 0;
#X msg 549 281 1;
#X obj 549 253 t b;
#X obj 513 312 outlet;
#X text 570 29 l;
#X text 701 22 n;
#X text 823 -16 m;
#X text 436 -201 go;
#X obj 924 -144 inlet;
#X text 917 -168 day number;
#X obj 924 -114 nbx 5 14 -1e+37 1e+37 0 0 empty empty empty 0 -8 0
10 -262144 -1 -1 0 256;
#X obj 444 -140 t b b b b;
#X obj 13 342 text define \$1-data1;
#X obj 215 543 text define \$1-data2;
#X obj 566 184 text search \$1-data1 0 1;
#X obj 835 235 text search \$1-data2 0 1 2;
#X obj 880 297 text get \$1-data2 3;
#X msg 32 -72 set \$1;
#X obj 28 81 makefilename;
#X obj 275 43 symbol;
#X obj 320 -23 r fileblank;
#X obj 117 -70 symbol;
#X obj 190 -115 r filestem;
#X obj 32 -107 t b s;
#X obj 32 -34 makefilename;
#X msg 28 41 set \$1;
#X obj 32 2 t b s;
#X obj 32 -143 makefilename %s/%%s.%%%%s;
#X obj 190 -90 symbol;
#X obj 320 10 symbol;
#X obj 275 170 r mswitch;
#X obj 275 201 tgl 15 0 empty empty empty 17 7 0 10 -262144 -1 -1 0
1;
#X obj 624 286 text get \$1-data1 2 4;
#X obj 624 318 unpack f f f f;
#X obj 930 158 r mswitch;
#X obj 930 190 tgl 15 0 empty empty empty 17 7 0 10 -262144 -1 -1 0
1;
#X obj 903 333 r mswitch;
#X obj 925 375 tgl 15 0 empty empty empty 17 7 0 10 -262144 -1 -1 0
1;
#X obj 833 405 tgl 15 0 empty empty empty 17 7 0 10 -262144 -1 -1 0
1;
#X obj 833 373 == 0;
#X obj 230 225 spigot;
#X obj 836 205 spigot;
#X obj 880 400 spigot;
#X obj 772 437 spigot 1;
#X connect 0 0 52 0;
#X connect 1 0 54 0;
#X connect 2 0 40 0;
#X connect 2 1 22 0;
#X connect 2 1 42 0;
#X connect 2 1 72 0;
#X connect 3 0 4 1;
#X connect 4 0 1 0;
#X connect 4 0 37 0;
#X connect 5 0 51 0;
#X connect 6 0 3 0;
#X connect 15 0 16 1;
#X connect 16 0 1 1;
#X connect 16 0 37 1;
#X connect 17 0 15 0;
#X connect 19 0 0 0;
#X connect 20 0 39 1;
#X connect 21 0 0 0;
#X connect 21 1 19 0;
#X connect 23 0 5 0;
#X connect 24 0 25 0;
#X connect 25 0 21 0;
#X connect 25 0 80 0;
#X connect 26 0 25 0;
#X connect 27 0 26 0;
#X connect 27 1 24 0;
#X connect 28 0 30 0;
#X connect 29 0 28 0;
#X connect 30 0 33 0;
#X connect 31 0 53 0;
#X connect 32 0 31 0;
#X connect 33 0 31 0;
#X connect 33 1 32 0;
#X connect 34 0 35 0;
#X connect 35 0 36 1;
#X connect 36 0 37 2;
#X connect 37 0 81 0;
#X connect 38 1 56 0;
#X connect 39 0 67 0;
#X connect 40 0 43 0;
#X connect 41 0 43 0;
#X connect 42 0 41 0;
#X connect 48 0 50 0;
#X connect 50 0 26 1;
#X connect 51 0 4 0;
#X connect 51 1 16 0;
#X connect 51 2 36 0;
#X connect 51 3 39 0;
#X connect 54 0 2 0;
#X connect 55 0 38 0;
#X connect 56 0 82 0;
#X connect 57 0 64 0;
#X connect 58 0 27 0;
#X connect 59 0 58 0;
#X connect 60 0 69 0;
#X connect 61 0 64 0;
#X connect 62 0 68 0;
#X connect 63 0 61 0;
#X connect 63 1 57 0;
#X connect 64 0 66 0;
#X connect 65 0 58 0;
#X connect 66 0 59 0;
#X connect 66 1 65 0;
#X connect 67 0 63 0;
#X connect 68 0 61 1;
#X connect 69 0 59 1;
#X connect 70 0 71 0;
#X connect 71 0 80 1;
#X connect 72 0 73 0;
#X connect 73 0 83 0;
#X connect 73 1 7 0;
#X connect 73 2 8 0;
#X connect 73 3 9 0;
#X connect 74 0 75 0;
#X connect 75 0 81 1;
#X connect 76 0 77 0;
#X connect 76 0 79 0;
#X connect 77 0 82 1;
#X connect 78 0 83 1;
#X connect 79 0 78 0;
#X connect 80 0 29 0;
#X connect 81 0 55 0;
#X connect 82 0 10 0;
#X connect 83 0 10 0;
