#N canvas 1 52 1345 683 10;
#X obj 322 23 inlet;
#X obj 493 28 inlet;
#X obj 674 26 inlet;
#X text 336 1 l;
#X text 506 5 n;
#X text 684 6 m;
#X obj 375 589 outlet;
#X obj 715 594 outlet;
#X obj 100 2 bng 15 250 50 0 empty empty empty 17 7 0 10 -262144 -1
-1;
#X text 97 -48 go;
#X obj 100 -26 inlet;
#X obj 304 98 int;
#X obj 475 101 int;
#X obj 730 124 abs;
#X obj 656 101 int;
#X obj 304 179 tgl 15 0 empty empty empty 17 7 0 10 -262144 -1 -1 0
1;
#X obj 730 206 tgl 15 0 empty empty empty 17 7 0 10 -262144 -1 -1 0
1;
#X obj 703 238 +;
#X obj 715 375 bng 15 250 50 0 empty empty empty 17 7 0 10 -262144
-1 -1;
#X obj 475 173 tgl 15 0 empty empty empty 17 7 0 10 -262144 -1 -1 0
1;
#X obj 628 176 tgl 15 0 empty empty empty 17 7 0 10 -262144 -1 -1 0
1;
#X obj 553 197 +;
#X obj 375 333 bng 15 250 50 0 empty empty empty 17 7 0 10 -262144
-1 -1;
#X obj 775 369 t b;
#X obj 517 259 f;
#X text 793 302 step 1;
#X text 8 281 step 2;
#X obj 881 30 inlet;
#X obj 863 91 int;
#X obj 863 180 tgl 15 0 empty empty empty 17 7 0 10 -262144 -1 -1 0
1;
#X obj 775 221 +;
#X text 873 9 day number;
#X obj 304 138 numberchange;
#X obj 863 145 numberchange;
#X obj 730 171 numberchange;
#X obj 628 141 numberchange;
#X obj 475 139 numberchange;
#X obj 175 167 symbolchange;
#X obj 175 198 tgl 15 0 empty empty empty 17 7 0 10 -262144 -1 -1 0
1;
#X obj 214 94 r filestem;
#X obj 214 116 symbol;
#X obj 175 142 symbol;
#X obj 176 35 t b b b b b b;
#X obj 685 270 +;
#X obj 710 325 sel 1 2 3 4;
#X obj 56 183 symbolchange;
#X obj 56 214 tgl 15 0 empty empty empty 17 7 0 10 -262144 -1 -1 0
1;
#X obj 95 132 symbol;
#X obj 56 158 symbol;
#X obj 95 110 r fileblank;
#X obj 535 228 +;
#X obj 370 258 sel 1 2 3;
#X obj 1017 23 r filestem;
#X obj 1017 45 symbol;
#X obj 1060 559 netsend;
#X msg 1150 528 disconnect;
#X floatatom 1060 586 0 0 0 0 - - -;
#X obj 1106 587 print backward;
#X msg 1060 503 connect localhost 1991;
#X obj 895 245 print send;
#X obj 1099 68 symbol;
#X obj 1099 46 r fileblank;
#X obj 997 250 pack s s 0 0 0 s 0;
#X obj 1120 113 r mswitch;
#X msg 997 284 send \$2 \$3 \$4 \$5 \$6 \$7;
#X text 801 324 determine if l \, abs(m) \, day number \, or filestem
changed. if any did \, trigger entire patch sequence. if none changed
\, bang for next step;
#X text 7 296 see if only n \, m \, or fileblank changed. if so \,
skip load audio and fft and trigger the rest, f 48;
#X obj 145 446 print received;
#X obj 49 479 sel go stop;
#X msg 49 352 listen 9119;
#X obj 49 441 symbol;
#X obj 88 532 tgl 15 0 empty empty empty 17 7 0 10 -262144 -1 -1 0
1;
#X obj 428 388 tgl 15 0 empty empty empty 17 7 0 10 -262144 -1 -1 0
1;
#X obj 428 335 == 0;
#X obj 49 604 spigot;
#X obj 375 414 spigot 1;
#X obj 428 309 r netswitch;
#X obj 88 507 r netswitch;
#X msg 591 455 right;
#X msg 639 420 set right;
#X obj 568 510 sel left right;
#X obj 578 482 symbol;
#X msg 556 420 set left;
#X obj 768 488 tgl 15 0 empty empty empty 17 7 0 10 -262144 -1 -1 0
1;
#X obj 768 435 == 0;
#X obj 715 514 spigot 1;
#X obj 768 409 r netswitch;
#X floatatom 723 296 5 0 0 0 - - -, f 5;
#X floatatom 588 270 5 0 0 0 - - -, f 5;
#X floatatom 543 307 5 0 0 0 - - -, f 5;
#X obj 919 465 tgl 15 0 empty empty empty 17 7 0 10 -262144 -1 -1 0
1;
#X obj 880 491 spigot;
#X obj 919 440 r netswitch;
#X floatatom 881 63 5 0 0 0 - - -, f 5;
#X floatatom 674 58 5 0 0 0 - - -, f 5;
#X floatatom 493 49 5 0 0 0 - - -, f 5;
#X floatatom 322 75 5 0 0 0 - - -, f 5;
#X obj 1127 433 tgl 15 0 empty empty empty 17 7 0 10 -262144 -1 -1
0 1;
#X obj 1127 408 r netswitch;
#X obj 1127 460 sel 1 0;
#X obj 49 404 netreceive;
#X msg 69 378 listen 0;
#X obj 166 368 tgl 15 0 empty empty empty 17 7 0 10 -262144 -1 -1 0
1;
#X obj 166 343 r netswitch;
#X obj 166 395 sel 1 0;
#X obj 196 530 print ERROR;
#X msg 196 505 files not found;
#X obj 634 314 del 50;
#X connect 0 0 62 3;
#X connect 0 0 96 0;
#X connect 1 0 95 0;
#X connect 2 0 62 4;
#X connect 2 0 94 0;
#X connect 8 0 42 0;
#X connect 10 0 8 0;
#X connect 11 0 32 0;
#X connect 12 0 36 0;
#X connect 13 0 34 0;
#X connect 14 0 13 0;
#X connect 14 0 35 0;
#X connect 15 0 17 0;
#X connect 16 0 30 0;
#X connect 17 0 43 1;
#X connect 18 0 79 0;
#X connect 18 0 85 0;
#X connect 18 0 91 0;
#X connect 19 0 21 0;
#X connect 20 0 21 1;
#X connect 21 0 50 1;
#X connect 22 0 75 0;
#X connect 22 0 82 0;
#X connect 22 0 91 0;
#X connect 23 0 107 0;
#X connect 24 0 51 0;
#X connect 24 0 89 0;
#X connect 27 0 62 2;
#X connect 27 0 93 0;
#X connect 28 0 33 0;
#X connect 29 0 30 1;
#X connect 30 0 17 1;
#X connect 32 0 15 0;
#X connect 33 0 29 0;
#X connect 34 0 16 0;
#X connect 35 0 20 0;
#X connect 36 0 19 0;
#X connect 37 0 38 0;
#X connect 38 0 43 0;
#X connect 39 0 40 0;
#X connect 40 0 41 1;
#X connect 41 0 37 0;
#X connect 42 0 48 0;
#X connect 42 1 41 0;
#X connect 42 2 11 0;
#X connect 42 3 12 0;
#X connect 42 4 14 0;
#X connect 42 5 28 0;
#X connect 43 0 44 0;
#X connect 43 0 87 0;
#X connect 44 0 18 0;
#X connect 44 1 18 0;
#X connect 44 2 18 0;
#X connect 44 3 18 0;
#X connect 44 4 23 0;
#X connect 45 0 46 0;
#X connect 46 0 50 0;
#X connect 47 0 48 1;
#X connect 48 0 45 0;
#X connect 49 0 47 0;
#X connect 50 0 24 1;
#X connect 50 0 88 0;
#X connect 51 0 22 0;
#X connect 51 1 22 0;
#X connect 51 2 22 0;
#X connect 52 0 53 0;
#X connect 53 0 62 1;
#X connect 54 0 56 0;
#X connect 54 1 57 0;
#X connect 55 0 54 0;
#X connect 58 0 54 0;
#X connect 60 0 62 5;
#X connect 61 0 60 0;
#X connect 62 0 64 0;
#X connect 62 0 59 0;
#X connect 63 0 62 6;
#X connect 64 0 54 0;
#X connect 68 0 74 0;
#X connect 68 1 106 0;
#X connect 69 0 100 0;
#X connect 70 0 68 0;
#X connect 71 0 74 1;
#X connect 72 0 75 1;
#X connect 73 0 72 0;
#X connect 74 0 78 0;
#X connect 75 0 6 0;
#X connect 76 0 73 0;
#X connect 77 0 71 0;
#X connect 78 0 81 0;
#X connect 79 0 78 0;
#X connect 80 0 6 0;
#X connect 80 1 7 0;
#X connect 81 0 80 0;
#X connect 82 0 78 0;
#X connect 83 0 85 1;
#X connect 84 0 83 0;
#X connect 85 0 7 0;
#X connect 86 0 84 0;
#X connect 90 0 91 1;
#X connect 91 0 62 0;
#X connect 92 0 90 0;
#X connect 93 0 28 1;
#X connect 94 0 14 1;
#X connect 95 0 12 1;
#X connect 96 0 11 1;
#X connect 97 0 99 0;
#X connect 98 0 97 0;
#X connect 99 0 58 0;
#X connect 99 1 55 0;
#X connect 100 0 67 0;
#X connect 100 0 70 0;
#X connect 101 0 100 0;
#X connect 102 0 104 0;
#X connect 103 0 102 0;
#X connect 104 0 69 0;
#X connect 104 1 101 0;
#X connect 106 0 105 0;
#X connect 107 0 24 0;
