#N canvas 1 54 1351 686 10;
#N canvas 0 50 450 300 (subpatch) 0;
#X array window 103680 float 2;
#X coords 0 1 103680 -1 200 140 1 0 0;
#X restore 514 39 graph;
#X obj 59 53 r window-ramp;
#X obj 333 184 t b f;
#X obj 482 231 array size window;
#X obj 162 97 r play-SR;
#X text 58 29 global settings;
#X obj 333 218 *;
#X obj 333 240 / 1000;
#X obj 137 329 until;
#X obj 137 357 f;
#X obj 168 359 + 1;
#X obj 59 214 bng 15 250 50 0 empty empty empty 17 7 0 10 -262144 -1
-1;
#X obj 137 279 float;
#X obj 87 586 tabwrite window;
#X obj 197 502 /;
#X obj 342 324 until;
#X obj 342 352 f;
#X obj 373 354 + 1;
#X obj 411 290 -;
#X obj 243 285 float;
#X obj 453 429 -;
#X obj 333 478 /;
#X obj 333 506 tabwrite window;
#X floatatom 273 226 5 0 0 0 - - -, f 5;
#X obj 197 455 t b f;
#X floatatom 168 549 5 0 0 0 - - -, f 5;
#X floatatom 210 550 5 0 0 0 - - -, f 5;
#X msg 133 223 \; window const 1;
#X obj 372 264 t b f;
#X obj 406 385 t b f;
#X obj 333 445 t b f;
#X obj 87 555 pack;
#X obj 59 241 t b b;
#X msg 59 313 -1;
#X msg 512 463 \; window 0 0 \; window \$1 0;
#X obj 512 399 int;
#X obj 457 311 - 1;
#X obj 59 94 t b f;
#X obj 425 336 sel 0;
#X obj 405 140 t b f;
#X obj 405 48 r nsamples;
#X obj 405 114 min;
#X obj 405 77 t b f;
#X obj 377 24 r block-size;
#X connect 1 0 37 0;
#X connect 2 0 6 0;
#X connect 2 0 11 0;
#X connect 2 1 6 1;
#X connect 4 0 2 0;
#X connect 6 0 7 0;
#X connect 7 0 12 1;
#X connect 7 0 19 1;
#X connect 7 0 23 0;
#X connect 7 0 24 0;
#X connect 7 0 28 0;
#X connect 7 0 30 0;
#X connect 8 0 9 0;
#X connect 9 0 10 0;
#X connect 10 0 9 1;
#X connect 10 0 31 1;
#X connect 10 0 14 0;
#X connect 10 0 25 0;
#X connect 11 0 32 0;
#X connect 12 0 8 0;
#X connect 14 0 26 0;
#X connect 14 0 31 0;
#X connect 15 0 16 0;
#X connect 16 0 17 0;
#X connect 16 0 29 0;
#X connect 16 0 22 1;
#X connect 17 0 16 1;
#X connect 17 0 38 0;
#X connect 18 0 16 1;
#X connect 19 0 15 0;
#X connect 20 0 21 0;
#X connect 21 0 22 0;
#X connect 24 0 14 0;
#X connect 24 1 14 1;
#X connect 28 0 18 0;
#X connect 28 1 18 1;
#X connect 29 0 20 0;
#X connect 29 1 20 1;
#X connect 30 0 21 0;
#X connect 30 1 21 1;
#X connect 31 0 13 0;
#X connect 32 0 12 0;
#X connect 32 0 33 0;
#X connect 32 0 19 0;
#X connect 32 1 27 0;
#X connect 33 0 9 1;
#X connect 35 0 34 0;
#X connect 36 0 38 1;
#X connect 36 0 35 1;
#X connect 37 0 11 0;
#X connect 37 1 6 0;
#X connect 38 0 35 0;
#X connect 39 0 11 0;
#X connect 39 1 18 0;
#X connect 39 1 36 0;
#X connect 39 1 20 0;
#X connect 39 1 3 0;
#X connect 40 0 42 0;
#X connect 41 0 39 0;
#X connect 42 0 41 0;
#X connect 42 1 41 1;
#X connect 43 0 41 0;
